# xmcd
#
# Track frame offsets:
#	150
#	3338
#	12748
#	24356
#	37531
#	49198
#	63837
#	86713
#	101844
#	114468
#	125246
#	140309
#	151557
#	168376
#	180179
#	190862
#	208186
#	217695
#	226013
#	233416
#	253641
#
# Disc length: 3441 seconds
#
# Revision: 2
# Processed by: cddbd v1.5.1PL0 Copyright (c) Steve Scherf et al.
# Submitted via: EasyCDDAExtractor 6.5.7.1
#
DISCID=fe0d6f15
DTITLE=Mateadores - Mateadores (Ao Vivo)
DYEAR=2004
DGENRE=Gauchas
TTITLE0=Abertura
TTITLE1=Flor De Rodeio
TTITLE2=Habanera
TTITLE3=Cutuca
TTITLE4=Toque Da Paixao
TTITLE5=Festa Animada
TTITLE6=Perdido Num Baile De Fronteira and Cheiro Da China ]
TTITLE7=Briga De Bugia
TTITLE8=Meu Jeitao
TTITLE9=Fica
TTITLE10=Galope Do Mouro
TTITLE11=Romance De Um Peao Posteiro
TTITLE12=Depois Da Lida
TTITLE13=Requebra Marvada
TTITLE14=Vanera Da Restinga
TTITLE15=Baile De Ramada
TTITLE16=Retoço De Gaita E Pandeiro
TTITLE17=O Maxixeiro
TTITLE18=No Tranco Do Gervásio
TTITLE19=Baile Das Negra Touro
TTITLE20=Encerramento
EXTD=
EXTT0=
EXTT1=
EXTT2=
EXTT3=
EXTT4=
EXTT5=
EXTT6=
EXTT7=
EXTT8=
EXTT9=
EXTT10=
EXTT11=
EXTT12=
EXTT13=
EXTT14=
EXTT15=
EXTT16=
EXTT17=
EXTT18=
EXTT19=
EXTT20=
PLAYORDER=
